<?xml version="1.0" encoding="UTF-8"?><svg id="Layer_1" xmlns="http://www.w3.org/2000/svg" viewBox="0 0 1474.52 150"><defs><style>.cls-1{fill:#231f20;}.cls-2{fill:none;stroke:#000;stroke-miterlimit:10;}</style></defs><path class="cls-1" d="M64.4,94.88h45.33c0-12.02-4.78-23.56-13.28-32.06-8.5-8.5-20.04-13.28-32.06-13.28v45.33Z"/><path class="cls-1" d="M56.18,45.17v97.71l-8.65-.95h-.03c-17.91-3.95-31.31-19.92-31.31-39.04V6.75c21.83-.87,39.99,16.59,39.99,38.42Z"/><path class="cls-1" d="M130.16,103.3c.87,21.83-16.59,39.99-38.42,39.99h-27.34v-39.99h65.76Z"/><path class="cls-2" d="M64.4,103.3v39.99"/><path d="M264.35,132.02c-.6,2.6-1.4,13.6-3.4,13.4-1.2,0-29-.4-45.6-.8-3.4-.2-6.4-1.2-8.8-1.2-3-.4-13.6.4-14,.2-3-.4-32,1-33.2,1-1.8,0-3-9.8,1-11.4,1.6-.6,21.2,1,22.4-.4.2-.8.2-6.2.6-14.6,0-2.6,1.8-3.8,2-6.4.2-1.8-1-4.8-.8-6.4.4-6.2,1.4-12.4,1.6-12.8,0-.4-1-3.6-1.2-8.4,0-2.2,1-4.6,1.2-6.8,0-3.6-1-6.4-1.2-7.2,0-1.8,3-7.6,3.2-8.6,0-.8-3.4-4-4-5.8-.4-1,.6-6.8.4-11.6,0-2-.8-5.2-.8-7-.2-2.8-.4-5.2-.8-5.4-1.4-2-14.8-.2-17.4-.4-2.6,0-2.4-11,1-11.4,1.4-.4,18.8,2.2,32.2,2.2,11,0,32.6-2.4,34.4-2.2s2.4,11,0,11.2c-5,.2-18-.6-20.2,1.8-.8.6-3.4,2.8-3.8,6-.2,1.4,2.2,3.2,2.2,5.2-.2,2.6-1.4,5.8-1.4,8.6-.2,8.2.8,15.2.6,17.6-.2,2.8,0,9.8,0,21.6,0,2-2.8,7.4-2.8,9.4,0,2.6,2.6,9.6,2.8,11.8.2,4.8,0,13.6.4,14.6,1.4,4.2,17.2,5.2,19.6,5.2s18-2.6,19.4-3.6c6.6-4.2,8.2-18.4,9-18.8,1.4-.4,7-.4,7.6,1.2.4.8-1.8,17.6-2.2,20.2Z"/><path d="M343.15,144.02c-1.8.6-27.8-2.4-34.4-1.8-4.4-.2-30.4,2.8-31.8,2.8-1.8,0-3.4-10.2-.4-11.6,1.6-.6,18,1.2,18.6,0,.4-1,1.8-5.6,2-10.4.2-3.6-.2-6.4-.2-7.8,0-2,1.2-5.4,1.4-9.8.2-3.8-.6-8.6-.6-9.6,0-2,3.6-7.8,3.6-8.8,0-.8-3.4-3.8-4-5.6-.2-.4-.4-8,1-10.6,1.2-2.8-1.2-6.6-1.2-8.6-.2-2.6-.8-7.2-.8-12.4-.2-2.2.8-4.4.8-6.4,0-2.2-1.2-4-1.4-5.6-.2-3.4-.4-6-.4-6.6-1.8-1.8-14.4-.2-17-.2-3,0-1.2-11,.8-11,1.4-.6,19,2,32,2.4,8.6.2,27.8-1.4,30.4-1.2,2.2,0,2.6,10.4.4,10.6-2.4.2-14.4-2-16.6-.2-.4.4-4,1.8-4.4,5.2-.2,1.4,3,3.6,3,5-.2,3.2-.2,6.2-.8,10-.2,1.8-1.4,4.4-1.2,6.6,0,3.4,1.4,6,1.4,9.2,0,5.4-.6,9.8-.8,11-.2,2.8.2,10,.4,21.4,0,2.2-1.2,5.4-1.2,6.6,0,2.8,1.6,8.8,1.6,11,.2,5,0,8.4.2,9.4,1.4,4.2,2.6,6,4.2,6.2,2,.4,14.2-.8,16-.4,3.4.6,1.6,10.8-.6,11.2Z"/><path d="M473.74,112.02c-.4,1.4.8,2.8.6,3.8-.2,2-1.2,3.2-1.2,4.6,0,2.2.6,5.8.4,7.2-.4,2.8,2.4,8.6.4,10.8-1.4,1.4-29.4,7.8-50.6,7.8-2.2,0-18.2.8-33.2-7.8-3.6-2-10-4-13.2-7-1.6-1.4-6-3.6-7.8-10-1.2-3.8,0-7.6-1.2-9-.8-1-4-1.8-4.8-3.6-1.6-4-2.2-8.2-3-11.6-.8-3.2-.8-5.4-.8-11,0-4.2,0-7.2.4-10.8.4-3.4.4-7.8,1-10.4,1.2-4.4,2.6-7.4,4.4-10.4.8-1.6,4.2-2.4,5.2-3.8,1-1.6,0-4.2.6-5.4,1.2-1.6,2.8-4,3.8-5,6.2-6.4,37.6-20.8,47-21.2,4.2-.2,12,0,19.6.6,3,.2,5.4,1.6,8,2,3.6.4,6.6-.4,9.8.2,5.2,1,9.6,1.8,11.2,3,1.2,1,0,9.6.6,13.8.4,4,1.6,15.2,1.4,16.4-.2,1-6.8,2.4-8.2,1-.6-.8-3.4-13.8-6.6-16.8-.2-.2-3-3.6-6-4.6-1.6-.6-4.4-2.6-6.4-3.4-4.8-1.8-8.6-3-15-3-4.2,0-8,1-12.6,2.6-1.8.6-4.8.2-6.8,1.4-3.2,1.8-6.6,4.6-9.8,8.4-.8,1-3.2,1.8-3.8,3.2-.8,2-4.6,8.8-6.2,12.6-1.2,3-1.2,7-2.2,10.4-2,6.4-1.6,7.4-1.8,14.8,0,2.6.4,5.8.4,8,.2,1.6-1.6,4.2-1.2,5.6.2,1.8,2.6,5.2,3,7,.8,3.6,2.8,5.6,3.6,8.4,1.6,5.2,5,9.2,7.8,12.4,3,3.4,7.8,6.4,11,8.4,7.4,4.6,12.4,4.2,15.2,4.4,3.2.2,7.8.8,13.6,0,5.4-.6,10.2-2,11-2.8.4-1,.8-3.4.8-5.8,0-1.4,1-2.8,1-4.2-.2-2.2-1.6-1.4-2-3.2-.4-4-1-9.8-1.6-10.4-2.4-1.8-16.2-.4-16.8-1-1-2-1.6-8.4,1-9.4.8-.2,4.6.6,8,.6,1.4.2,7-.2,8.6-.2,1.6.2,4.8.8,6.2,1,1.6,0,2.6,1.8,4,1.8,1.2,0,3-1.6,4.4-1.6,8.4,0,18.2-2.4,19.8-2.6,3.2-.2,3.2,9,.6,9.8-1.6.4-10.4-1.6-11.6,4Z"/><path d="M612.94,142.42c-6.8,0-29.4,3-31,3-3.6,0-3.4-10.4-.4-10.4,1.6,0,15.6.6,15.8-.8.2-1.4.8-17.6.8-18.2,0-.4.8-3.8.8-8,0-2.2-.8-5-.8-7.6,0-6.2,0-11.4.2-12.4,0-.6-.4-1.6-.6-2.6-1.6,0-12.4,1-30,1.6-3.4.2-6.6-1-9.6-.8-2.2,0-4,1.2-6,1.2-4.2,0-10.8.4-11.6.4v12.4c0,2.2-2.2,5.6-2.2,7.4,0,2.8,2.6,8.6,2.6,10.8,0,5,.2,8.2.2,9.4,1.4,4.2,2.4,6.4,4,6.4,2,0,12.8-.2,14.6,0,2.2,0,2.2,9.8,0,9.8-1.8,0-28.6-1.8-35-1.8-2.8,0-28.8,2.8-30.4,2.8-2,0-3.2-10.6.2-10.8,1,0,17.8,1.2,18-.2,0-.8.2-3.4.8-6.8.2-2,2.4-3.4,2.6-5.2.4-3.4-1.2-6.8-1.2-7.2v-14.2c0-1.8,1.6-11.8,1.6-12.6s-1.2-4.8-1.2-6.8c0,0,1-9,2.2-12.8-.4-.4-3.6-4.4-3.6-6.2,0-2.8,1.2-8.2,1-13.8,0-2.2-1.4-4.6-1.4-6.8,0-5.8.4-8.8-.2-9.4-1.6-1.8-13.2.6-15.4.6-5.2,0-2.4-12-.4-12,1.6,0,18,1.4,31,1.4,10.2,0,24.8-.4,27.8-.4,2.2,0,3,10.4,0,10.4-2.2,0-12-2-14,0-.8.8-1.2,2.4-1.6,8.8-.2,1.6.8,5.6.8,7.4-.2,2.4-.2,4.8-.2,7.2-.2,5.4-1.2,10.4-1.4,15,0,2.2.8,4,1,5.4l56.8.6c0-1.6.4-3.4.4-4.4,0,0,2.8-7.4,2.8-11,0-3.4-3.4-3.4-3.2-7.6,0-2.6.8-6,.4-9.8-.2-2.4-1.4-4.8-1.6-6.6-.2-2.8-.2-5-.4-5.6-1.4-2-12-2.2-14.2-2-4,.4-1.4-9.6,1-9.6,1.4,0,18.2,2.2,31,2.2,10.2,0,23-.8,26-1.2,3.4-.4,3.8,10.2,1,10.4-2.2.2-13-1.8-15,.2-1.8,1.4-1.4,6-1.4,12.2,0,1.6-1.4,3.4-1.4,5,0,3.4,1.6,5.8,1.6,8.8.2,4-1.4,9.6-1.6,11.2,0,2.8.4,8,.6,19.4,0,2.2-2.2,6-2.4,8.2,0,2.6,2.6,8,2.8,10,0,1.6-1,3.8-1.2,6.2,0,2,1,4,1,6,0,4.6.2,7.6.2,8.2,1.2,4.2,2.2,6.8,4,6.8,2,0,13.6-.2,15.2-.4,3-.4,2.6,10.8.4,10.8-1.6,0-24-1.6-30.6-1.6Z"/><path d="M760.94,31.42c-.6,4.2-2.6,16.2-3.2,17.6-1.2,2-5.6.8-6.4-.2-.4-1,.2-10.6-4.8-15.2-.4-.4-7.2-2-10.2-2.6-2.8-.4-15.8-.6-16,.8-.2.4-1.4,3.8-1.4,7.8,0,6,.8,17,.4,18.2-.2.6-.2,5.4,0,11,0,2.8-2.2,5.6-2.2,8.4,0,2.2,2.4,4.6,2.4,6.6,0,7.4-1.6,12.4-1.8,13.2s1.4,5.2,1.6,9.4c.2,3.8-.8,8.4-.6,12.8.2,5.2,1.6,9.4,2,11.2.6,3.8,19.6,1.8,21,2.2,3.6,1.2,1.2,12-.6,12-2,0-26.6-2.2-34.8-2.2-8.8,0-30,2-31.2,1.4-1-.4-3-9.8-.2-11.2,1.4-.6,16.6.6,17-.2.2-1.2.6-2.4.8-7.8.2-2.6,2-5.4,2-8.2-.2-3-2-6.2-2-9,0-2.6,1.6-5,1.6-7.4.2-7.2-1.4-12.8-1.4-13.2,0-1.6,1.4-10.8,1-12.2-.6-1.4-1-4.4-1-5.2,0-1,.4-6.2.4-6.8,0-.4-.8-4.2-.6-6.8,0-1.6.6-7.2.6-12.2,0-2.4,2.4-5.2,2.2-7.4-.4-3.4-2.8-5.4-3.4-5.4-1.4-.4-23.8,1.6-26.2,3-3.6,2-8.4,12.8-8.6,14.2,0,1.8-5.6.2-6.2-1-.4-1,.8-12.2,1.8-15.8,1-3.8,1.4-11.6,1.2-12.2,0-.4,3-1.8,5-1.8.6,0,1.2,0,1.4.4.6.6,4,1.2,6.8,1.8,1.6.2,3,1.8,4.6,2,1.8.2,4.4-1.2,6.2-1,4,.4,8,1.2,10.8,1.2,2,0,14.4-.2,24.8-.4,1.8,0,5,1,7,1.2,4.2,0,7.2-.8,11.2-1,9.2-.2,13.4-.2,16.4-.2,5.6.2,8.8-2.6,9.6-4.2.2-.4,1-.4,1.6-.4,1.8,0,4.4.8,4.4,1.6,0,1-2.6,10.4-3,13.2Z"/><path d="M889.14,142.42c-6.8,0-29.4,3-31,3-3.6,0-3.4-10.4-.4-10.4,1.6,0,15.6.6,15.8-.8.2-1.4.8-17.6.8-18.2,0-.4.8-3.8.8-8,0-2.2-.8-5-.8-7.6,0-6.2,0-11.4.2-12.4,0-.6-.4-1.6-.6-2.6-1.6,0-12.4,1-30,1.6-3.4.2-6.6-1-9.6-.8-2.2,0-4,1.2-6,1.2-4.2,0-10.8.4-11.6.4v12.4c0,2.2-2.2,5.6-2.2,7.4,0,2.8,2.6,8.6,2.6,10.8,0,5,.2,8.2.2,9.4,1.4,4.2,2.4,6.4,4,6.4,2,0,12.8-.2,14.6,0,2.2,0,2.2,9.8,0,9.8-1.8,0-28.6-1.8-35-1.8-2.8,0-28.8,2.8-30.4,2.8-2,0-3.2-10.6.2-10.8,1,0,17.8,1.2,18-.2,0-.8.2-3.4.8-6.8.2-2,2.4-3.4,2.6-5.2.4-3.4-1.2-6.8-1.2-7.2v-14.2c0-1.8,1.6-11.8,1.6-12.6s-1.2-4.8-1.2-6.8c0,0,1-9,2.2-12.8-.4-.4-3.6-4.4-3.6-6.2,0-2.8,1.2-8.2,1-13.8,0-2.2-1.4-4.6-1.4-6.8,0-5.8.4-8.8-.2-9.4-1.6-1.8-13.2.6-15.4.6-5.2,0-2.4-12-.4-12,1.6,0,18,1.4,31,1.4,10.2,0,24.8-.4,27.8-.4,2.2,0,3,10.4,0,10.4-2.2,0-12-2-14,0-.8.8-1.2,2.4-1.6,8.8-.2,1.6.8,5.6.8,7.4-.2,2.4-.2,4.8-.2,7.2-.2,5.4-1.2,10.4-1.4,15,0,2.2.8,4,1,5.4l56.8.6c0-1.6.4-3.4.4-4.4,0,0,2.8-7.4,2.8-11,0-3.4-3.4-3.4-3.2-7.6,0-2.6.8-6,.4-9.8-.2-2.4-1.4-4.8-1.6-6.6-.2-2.8-.2-5-.4-5.6-1.4-2-12-2.2-14.2-2-4,.4-1.4-9.6,1-9.6,1.4,0,18.2,2.2,31,2.2,10.2,0,23-.8,26-1.2,3.4-.4,3.8,10.2,1,10.4-2.2.2-13-1.8-15,.2-1.8,1.4-1.4,6-1.4,12.2,0,1.6-1.4,3.4-1.4,5,0,3.4,1.6,5.8,1.6,8.8.2,4-1.4,9.6-1.6,11.2,0,2.8.4,8,.6,19.4,0,2.2-2.2,6-2.4,8.2,0,2.6,2.6,8,2.8,10,0,1.6-1,3.8-1.2,6.2,0,2,1,4,1,6,0,4.6.2,7.6.2,8.2,1.2,4.2,2.2,6.8,4,6.8,2,0,13.6-.2,15.2-.4,3-.4,2.6,10.8.4,10.8-1.6,0-24-1.6-30.6-1.6Z"/><path d="M1069.73,90.42c-.4,1.8-1.8,5.8-2.4,7.2-1.4,4.2-2,5.4-3.4,8.6-1.2,3-1.8,6-2.4,7.6-1.6,5.4-39.4,30.4-41.8,30.2-2.4,0-13.6,2.6-19.2,2.6-4,0-7.6.8-10.8.2-2-.4-3.8-2.6-5.4-3.2-4.2-1-8.4.2-11.6-1.6-4.2-2.4-11-6.8-15-10-3-2.4-5-6.6-7.4-8.6-3-3.2-7.4-10.4-8-11.4-.6-1.2-4.8-9-5-10.6-.4-2,1.6-8.4,1.4-9.8-.4-1.2-4-5.6-4-9.6,0-1.6,0-5,1.6-11.6,1-3.6,2.6-5.8,4-9.6.4-1.6.4-5,1-6,1.8-4.8,4.2-9.2,6.4-12.2,3-4,9.4-8.2,16.8-12,3.2-1.6,7.4-3.2,11-4.8,3-1.2,8.6-3.2,11.2-4,6.4-2.2,12.6-2.6,16.6-2.6,5.8,0,9.4.6,14.4,1.8,2.8.6,7.4.8,10.4,1.8,5.4,1.8,12.6,4.4,18.4,7.4,7.4,3.6,13.6,14.4,14.8,16,.6,1,1.2,6,3,10.2,1.2,3,3.6,5,4.6,9,1.4,5,2.2,10,2,14.6,0,3.6-.6,7.2-1.2,10.4ZM1040.33,65.42c-.4-1.4-1-6.4-4.2-12-1.2-2.4-4.2-4.2-5.8-6.6-2.2-3.4-5.4-6.8-8.4-9.4-2.2-2-5.6-2.8-7.8-3.6-8.8-3-12.4-4.4-21.6-3.8-1.4,0-10.8,4.6-17.6,9.2-2.6,1.6-4.4,4.2-5.2,5.2-1,1-2.6,1.2-3.4,3.4-.6,1.6-2.4,5-3,7.2-2,7.6-3.4,18-1.8,33,.4,4.4,2.4,9.4,3.6,13.4.8,2.4,0,4.8.8,6.8,1.2,2.2,4,4,5.2,5.8,3.6,5.6,7,8.6,10.2,11.4,4,3.4,7.4,5.2,11.2,7,2,.8,5,.8,6.8,1.2,6.8,2.2,11.2,3.2,16.6,1.8,11-3,25.2-16.8,26.8-25,.6-2.8,1.4-7,1.6-10.4.2-7-.4-12.2-.4-13,0-1,1.8-12.8,1.6-15.2-.6-.4-4.6-3.4-5.2-6.4Z"/><path d="M1209.13,30.42c-1,0-3.4,11.6-4.2,14.4-.2,1.2,0,7.6-.2,17,0,3.6-2,13.4-2.2,16.8-.2,8.6.4,9.6.4,11,0,1.8-1.8,8-2.4,14.4-.2,3.2.6,7.2.2,10-.4,3.4-2.2,8.2-2.8,9.4-3.4,7.4-19.4,19.4-26.6,21.6-5,1.6-15.2,1.6-24.6,1.6-22.8,0-34-7.8-35.2-9.6-2-2.4-5.8-7.8-8.6-12.4-1-1.8.4-7-.4-8.6-1.4-3.2-3.6-6.6-4.2-9.6-.2-1.6.2-6,.2-13,0-5.2-1.6-9.8-1.8-11.2,0-3.4.4-18,.4-19s3-7.2,3-8.2-2.8-7-2.8-9.2c0-2.6-.2-12.8-1-14.6-1-1.8-13.2-.2-14.6-.2-4.4,0-3-11.8.2-12,1.4,0,20.8,2.6,27.4,2.6,5.8-.6,27.2-2,29.6-1.4,2.8.6,3,10.2.2,10.2-.8,0-10.4-1-13,.2-.6.2-1.6,4-1.8,9.2-.2,2.4.4,5,.2,7.6-.2,7.4-.4,15.2-.6,16.6,0,1-2.2,5.4-2.2,11.8,0,2.2,2,4.6,2,7.4-.2,5.8.4,10.6.6,15.2.2,4-.8,9.4-.8,10.8.6,3.4,2.4,7.6,4.6,11.4,3,4.8,6.2,6.8,9.8,9,2.2,1.2,4.2,4.2,7,5.2,2.6,1,6.2-.8,10.4-.4,4.2.6,8.6.6,14.2-.2,5-.8,9.2-5.6,14.6-11.4,3.2-3.4,4.2-5.8,5.2-9,.6-1.6.8-7.2,1.2-14.8.2-6.6-1.2-12.8-1-20.4.2-3.2.4-7.6.6-10.6,0-2.6,2-5.4,2-7.8,0-7-3.4-13.4-3.6-14.4-.8-3.8-1.6-14.4-3-15.4-1.6-1-12-.6-13.4-.6-4.6,0-1.2-9.6.2-9.8,1,0,20,2,26.6,2s20-1.4,21.4-1.4c1.6,0,2.8,10.4.2,10.4-1.8,0-10-.8-11.4-.6Z"/><path d="M1318.13,106.02c-.2,3.6.2,7.2,0,9.6-.4,9.2-9.6,18-16.4,23.6-2.6,2-6.8,1.8-9,3.2-1.4,1.2-3.8,3.6-6.4,4-2.2.4-5-.6-7.6-.4-2.4,0-6.6.8-8.8.6-5-.2-11.2-1-16.6-2.2-3-.6-4.8-2.6-7.2-3-1.6-.6-4,.4-5.4,0-3.8-.8-6-1.8-6.6-2.2-.6-.6.4-5.4.6-9-.2-2-2-8.6-1.8-10.4-.2-4.6-2.6-12.2-2.8-13.4.2-1.8,7.4-4.2,8.8-1.4.4.6,1.2,4,2,7.2.8,1.8,2.4,5.2,3.6,7,.4,1.2,3,4.6,3.6,5.8,1.8,3,5.8,5,10.2,7.2,4.6,2.4,7.6,4.2,15,4.6,4.2.2,7.4.8,11.6-.8,2.4-1,6.2-2.8,8.2-4,4.4-3.2,7-4.8,7.2-9.8.2-3.4,1.2-4,.6-6.8-.8-2.4-2.4-5.6-4-7.6-1.2-1.6-6.8-3.2-8-4-6-2.8-13.2-5.4-20.4-8.6-3.8-1.8-10-4-14-6.4-1.8-1-2.2-4.8-3.8-6-2-1.4-6.2-1.2-7.8-3-3.6-3.2-5.6-9.8-7.2-14-.6-1.6,0-3.2-.2-4.8-.2-1.8-1.2-3.4-1-5.2.4-6.6,3.6-14,5.8-18.2,1.2-2.6,5.4-4.8,6.8-6.8,2-2.2,5.2-5,7.6-6.6,3.8-2.6,10.2-2.2,14.4-3.2,4.6-1,7.8-2,12-2,7.2-.2,19.4,2.4,25.2,4.6,1.4.4,2.8-4.6,4-5.4.4-.4,1.2-.6,2-.6,1.6,0,3.6.8,3.8,1.6.2,3-1,14.4-1.2,16.8-.2,2.4,1.2,16.6,1.2,18,0,1.8-6.6,2.4-7.2.6,0-.8-3.2-7-5.4-12.4-.6-2-3.4-6.4-5-7.8-1.4-1-6.6-1.6-8.4-2.4-3.4-1.6-5.4-3.6-10-3.8-4-.2-8.2.4-11.4,1.4-4.4,1.2-7.2,2.8-9.6,5-3.4,3.2-4,7-4.2,11-.2,3.4,2.8,5.8,5.2,9,.8.8,2.2,3.2,3.2,4.2,1.8,1.8,4,.6,6.4,2.4,3,2,5.2,3.4,9.4,5,2.6,1,6,2.4,9.2,3.8,3,1.2,6.6.4,9.8,2.2s3.8,3,6.4,5.4c.8,1,2.6,4.2,4,5.2,1.6,1.6,3.8,3.6,5,4.8,1.6,1.8,2.6,3.8,3.6,5.8.4,1.4,1,3.8,1.2,6,0,2-.4,4.8-.2,6.6Z"/><path d="M1441.13,114.02c-.4,1.4-1.4,3.6-1.4,4.8-.4,1.4.2,7.2,0,8.6,0,2.2-1.8,5.6-2,6.4-.6,2.4.2,10.6-1.8,10.6-.4,0-6.6-.2-11.6-.2-1.2,0-2-2-3.2-2-3.2,0-11.2,1.6-14.8,1.6-15.4-.4-41.8-.2-43.2-.6-2.8-.4-32,1-33.4,1-1.6,0-3.2-9.8.6-11.2,1.6-.6,22,1.6,22.4.4,0-.4.8-2.8,1-7.4.2-2.2,2.2-4.4,2.2-7.2.4-3.6-1-6.8-1-10.4,0-2.6,1.6-5.4,1.6-7.6,0-3.8-.8-7-.8-6.8-.2-1,0-8.6,0-10.4,0-2,1-7.6,1-8.4,0-1-1.6-4.4-2-6.4,0-.8.8-7.6.8-14,0-2.2-1.2-5.2-1.2-7.2,0-3,.6-6,.6-8.4,0-3.8-1.2-6.2-1.4-6.8-1.6-1.6-14.8-1-17.2-1.2-3.6-.2-1.6-11.2.8-11.2,1.6-.4,15.4,2.2,28.4,2.2s67.2-1.6,68.4,0c2,3,.8,27,.8,28,0,1.2-5.6,1-6.2-.2-.6-1-2.8-11.6-6-15.4-.4-.4-5.4-1.8-8.8-2-3.2,0-8.8-3-11.6-3-1.8,0-5.6,1.8-6.8,1.8-4.8-.6-9.6,0-11.8,2.4-.8.8-1.4,4.8-1.6,11.8,0,2.2-1.4,4.6-1.4,7,0,3.2.8,5.6.8,8.8,0,6.4-.2,11.8-.2,14.8,3,0,8.6-.2,12.4-.4,2.8,0,4.2.6,6.6.8,1.2,0,3.8-1,4.6-1.2,4-.2,10.4-1.2,11.2-1.6,2.8-2,5.2-11.4,5.4-12.4,0-1.4,6.4-1,6.8.4.6,1-1.4,16.6-1.2,19.2.6,3,1.8,17.4,1.6,18.4-.2,1.6-6,2-6.4,1.2-.4-.4-3.6-12.2-6.4-13.4-2-.8-20.8-1.8-34.8-1.6,0,3.6.2,7.6.2,13.4,0,2.2-1,4.6-1,6.6,0,2.8.8,9.8.8,11.8,0,5,.4,8.4.8,9.6,1.2,4.2,12,4.6,14.4,4.6,6.4,0,25-1.2,28.4-3.4,6.6-4.4,10.2-19,11.2-19.8.8-.6,5.4.2,5.8,1.4.2.2-.2,2.2-.4,4.2Z"/></svg>